<?xml version="1.0" encoding="UTF-8"?>
<!DOCTYPE svg PUBLIC "-//W3C//DTD SVG 1.1//EN" "http://www.w3.org/Graphics/SVG/1.1/DTD/svg11.dtd">
<svg xmlns="http://www.w3.org/2000/svg" version="1.1" width="50" height="50" viewBox="0 0 256 256" style="shape-rendering:geometricPrecision; text-rendering:geometricPrecision; image-rendering:optimizeQuality; fill-rule:evenodd; clip-rule:evenodd" xmlns:xlink="http://www.w3.org/1999/xlink">
<g><path style="opacity:0.954" fill="#000000" d="M 33.5,-0.5 C 74.8333,-0.5 116.167,-0.5 157.5,-0.5C 183.526,8.8357 194.86,27.5024 191.5,55.5C 200.839,55.3335 210.173,55.5002 219.5,56C 238.153,60.157 250.153,71.3237 255.5,89.5C 255.5,143.5 255.5,197.5 255.5,251.5C 254.5,253.167 253.167,254.5 251.5,255.5C 249.167,255.5 246.833,255.5 244.5,255.5C 228.398,242.575 212.398,229.409 196.5,216C 163.833,215.667 131.167,215.333 98.5,215C 79.8982,210.065 68.3982,198.232 64,179.5C 63.5002,170.173 63.3335,160.839 63.5,151.5C 61.4727,151.338 59.4727,151.505 57.5,152C 42.6855,164.904 27.6855,177.571 12.5,190C 7.35132,192.533 3.01799,191.7 -0.5,187.5C -0.5,136.167 -0.5,84.8333 -0.5,33.5C 3.20187,20.6251 10.8685,10.7918 22.5,4C 26.307,2.57157 29.9736,1.07157 33.5,-0.5 Z M 43.5,14.5 C 78.1683,14.3333 112.835,14.5 147.5,15C 161.768,16.2686 170.935,23.7686 175,37.5C 175.667,62.8333 175.667,88.1667 175,113.5C 171.75,125.083 164.25,132.25 152.5,135C 119.167,135.333 85.8333,135.667 52.5,136C 39.71,145.788 27.21,155.955 15,166.5C 14.0382,123.138 14.3715,79.8047 16,36.5C 20.5066,23.3313 29.6733,15.998 43.5,14.5 Z M 191.5,71.5 C 201.566,71.1048 211.566,71.6048 221.5,73C 230.151,76.9841 235.985,83.4841 239,92.5C 240.631,138.472 240.964,184.472 240,230.5C 227.622,219.731 214.788,209.565 201.5,200C 166.786,199.973 132.12,199.307 97.5,198C 88.4163,193.918 82.583,187.085 80,177.5C 79.5002,168.84 79.3336,160.173 79.5,151.5C 104.502,151.667 129.502,151.5 154.5,151C 160.951,149.772 166.951,147.439 172.5,144C 185.167,143.667 197.833,143.333 210.5,143C 215.224,140.565 216.724,136.731 215,131.5C 214.167,130.667 213.333,129.833 212.5,129C 204.277,127.562 195.943,127.062 187.5,127.5C 189.441,122.338 190.775,117.005 191.5,111.5C 197.842,111.666 204.175,111.5 210.5,111C 215.224,108.565 216.724,104.731 215,99.5C 213.833,98.3333 212.667,97.1667 211.5,96C 204.842,95.5004 198.175,95.3337 191.5,95.5C 191.5,87.5 191.5,79.5 191.5,71.5 Z"/></g>
<g><path style="opacity:0.919" fill="#000000" d="M 88.5,31.5 C 111.971,30.1392 123.471,41.1392 123,64.5C 120.76,75.5699 114.26,82.5699 103.5,85.5C 103.684,91.1393 101.017,94.4726 95.5,95.5C 88.7265,94.145 86.0598,89.9783 87.5,83C 86.6911,78.4514 88.0245,74.7847 91.5,72C 102.11,71.9922 107.277,66.8256 107,56.5C 102.746,47.0763 96.2457,45.0763 87.5,50.5C 84.3768,54.235 82.5434,58.5683 82,63.5C 76.8924,69.0163 72.2257,68.683 68,62.5C 67.1061,46.919 73.9394,36.5857 88.5,31.5 Z"/></g>
<g><path style="opacity:0.848" fill="#000000" d="M 92.5,103.5 C 102.197,103.29 105.197,107.623 101.5,116.5C 96.179,120.934 91.679,120.267 88,114.5C 86.7758,109.626 88.2758,105.959 92.5,103.5 Z"/></g>
<g><path style="opacity:0.928" fill="#000000" d="M 109.5,159.5 C 142.835,159.333 176.168,159.5 209.5,160C 215.158,161.829 216.992,165.663 215,171.5C 213.833,172.667 212.667,173.833 211.5,175C 177.167,175.667 142.833,175.667 108.5,175C 103.465,171.987 102.298,167.82 105,162.5C 106.652,161.601 108.152,160.601 109.5,159.5 Z"/></g>
</svg>
