<?xml version="1.0" encoding="UTF-8"?>
<svg version="1.1" xmlns="http://www.w3.org/2000/svg" width="512" height="512">
<path d="M0 0 C1.02335449 0.21962402 2.04670898 0.43924805 3.10107422 0.66552734 C47.51250986 10.40832482 86.90481581 31.16117171 121 61 C121.91910156 61.79535156 122.83820313 62.59070313 123.78515625 63.41015625 C128.24159417 67.32886411 132.35581875 71.32597334 136.17578125 75.8671875 C138.27250393 78.31860203 140.47965762 80.6482442 142.6875 83 C180.43526807 124.57394123 204.90775303 183.49466544 205.203125 239.79296875 C205.21013931 240.69355515 205.21715363 241.59414154 205.22438049 242.52201843 C205.24177809 245.41056381 205.24823227 248.29890416 205.25 251.1875 C205.25101212 252.66805878 205.25101212 252.66805878 205.25204468 254.17852783 C205.23631492 268.64725551 204.88011084 282.7734122 202 297 C201.81775879 297.9178125 201.63551758 298.835625 201.44775391 299.78125 C200.13618658 306.23280257 198.63355484 312.62290118 197 319 C196.81211914 319.74411133 196.62423828 320.48822266 196.43066406 321.25488281 C191.68985423 339.66883044 183.94903001 357.26437367 175 374 C174.64969727 374.66193359 174.29939453 375.32386719 173.93847656 376.00585938 C168.6704349 385.89822872 162.76904353 395.07223502 156 404 C155.55897949 404.58523438 155.11795898 405.17046875 154.66357422 405.7734375 C148.22835834 414.27024145 141.39940844 422.32346016 134 430 C133.41669922 430.60521484 132.83339844 431.21042969 132.23242188 431.83398438 C124.55586696 439.75068178 116.8007234 447.32152189 108 454 C107.43313477 454.4326416 106.86626953 454.8652832 106.28222656 455.31103516 C97.82772438 461.73618714 89.19067974 467.66315359 80 473 C79.34725098 473.38510742 78.69450195 473.77021484 78.02197266 474.16699219 C43.16989618 494.64147084 1.87031824 507.98978296 -38.79296875 508.203125 C-39.69355515 508.21013931 -40.59414154 508.21715363 -41.52201843 508.22438049 C-44.41056381 508.24177809 -47.29890416 508.24823227 -50.1875 508.25 C-51.17453918 508.25067474 -52.16157837 508.25134949 -53.17852783 508.25204468 C-67.64725551 508.23631492 -81.7734122 507.88011084 -96 505 C-96.9178125 504.81775879 -97.835625 504.63551758 -98.78125 504.44775391 C-105.23280257 503.13618658 -111.62290118 501.63355484 -118 500 C-119.11616699 499.71817871 -119.11616699 499.71817871 -120.25488281 499.43066406 C-138.67320797 494.68872721 -156.25519471 486.9386001 -173 478 C-173.64598145 477.66033203 -174.29196289 477.32066406 -174.95751953 476.97070312 C-190.09407155 468.96841079 -204.03866561 459.18070379 -217 448 C-217.74507813 447.36578125 -218.49015625 446.7315625 -219.2578125 446.078125 C-232.76279833 434.26698485 -245.43418743 421.51639772 -256 407 C-256.85649066 405.85005169 -257.71326433 404.70031411 -258.5703125 403.55078125 C-264.6109414 395.35910474 -269.97005071 386.84354922 -275 378 C-275.36448242 377.36819824 -275.72896484 376.73639648 -276.10449219 376.08544922 C-297.7607806 338.24906536 -307.46081022 295.41191971 -307.375 252.125 C-307.37445618 251.09019501 -307.37391235 250.05539001 -307.37335205 248.98922729 C-307.33398306 232.66605645 -306.51302839 216.99582994 -303 201 C-302.67056396 199.46279297 -302.67056396 199.46279297 -302.33447266 197.89453125 C-295.07867528 164.82493809 -281.81038135 132.5916133 -262 105 C-261.30519531 104.03191406 -260.61039062 103.06382813 -259.89453125 102.06640625 C-248.22247068 86.18000876 -235.08698153 70.73685367 -220 58 C-219.42266113 57.51031738 -218.84532227 57.02063477 -218.25048828 56.51611328 C-208.92431487 48.64498566 -199.35621809 41.45722136 -189 35 C-188.3498291 34.59185059 -187.6996582 34.18370117 -187.02978516 33.76318359 C-160.82309861 17.448455 -132.19073223 6.32999995 -102 0 C-100.56285645 -0.31541748 -100.56285645 -0.31541748 -99.09667969 -0.63720703 C-67.6647989 -7.28241383 -31.33862212 -6.920547 0 0 Z M-122 24 C-123.25272705 24.37632568 -123.25272705 24.37632568 -124.53076172 24.76025391 C-157.11693463 34.79620139 -185.48746694 52.72702796 -211 75 C-211.5048291 75.44021484 -212.0096582 75.88042969 -212.52978516 76.33398438 C-217.69855486 80.8674579 -222.6736614 85.44256282 -227.0859375 90.72265625 C-228.55465667 92.47013233 -230.06879044 94.17952098 -231.6015625 95.87109375 C-260.98344592 128.52753878 -280.42119807 171.70294142 -287 215 C-287.17587646 216.1338916 -287.35175293 217.2677832 -287.53295898 218.43603516 C-289.07255939 229.34946766 -289.35874061 240.11378145 -289.3125 251.125 C-289.31067719 252.0276358 -289.30885437 252.93027161 -289.30697632 253.86026001 C-289.26080903 267.4516379 -288.72049697 280.64653702 -286 294 C-285.83371094 294.86931152 -285.66742188 295.73862305 -285.49609375 296.63427734 C-278.56703016 332.38952864 -264.04604554 367.56486016 -241 396 C-240.30132812 396.88816406 -239.60265625 397.77632813 -238.8828125 398.69140625 C-235.0353994 403.56237642 -231.07276775 408.31631709 -227 413 C-224.14526551 411.69950762 -222.05149658 410.31264539 -219.81008911 408.12461853 C-219.2042952 407.5374707 -218.59850128 406.95032288 -217.97434998 406.34538269 C-217.32168655 405.70281021 -216.66902313 405.06023773 -215.99658203 404.39819336 C-215.30028183 403.71985443 -214.60398163 403.0415155 -213.88658142 402.34262085 C-211.587331 400.09805079 -209.29648815 397.84519345 -207.0078125 395.58984375 C-205.8346026 394.43447711 -205.8346026 394.43447711 -204.6376915 393.25576973 C-200.50299019 389.1803254 -196.37601859 385.09720751 -192.25390625 381.0090332 C-188.8387256 377.62506188 -185.40846773 374.25757983 -181.96386719 370.90356445 C-177.80460046 366.85360358 -173.67279249 362.77748441 -169.55941391 358.68094063 C-167.98738813 357.12421187 -166.40596973 355.57690939 -164.81518936 354.03935051 C-162.59258994 351.88709095 -160.40703228 349.70286814 -158.22705078 347.50756836 C-157.56224197 346.8791655 -156.89743317 346.25076263 -156.21247864 345.60331726 C-152.84027067 342.18426391 -152.84027067 342.18426391 -152.01505661 337.62845039 C-152.92143834 333.26257615 -154.3798655 329.7238168 -157.0625 326.125 C-161.90907425 319.51280334 -161.64421188 313.01782629 -161 305 C-159.91283199 301.11956369 -158.61293824 297.37244873 -155.48046875 294.70703125 C-153.20606344 292.08456391 -152.89050137 289.22830245 -152.125 285.875 C-150.58668539 279.63204393 -148.68157563 274.30103704 -145 269 C-144.57074219 268.37738281 -144.14148438 267.75476563 -143.69921875 267.11328125 C-137.57099261 259.15521857 -129.32568035 256.10856012 -120 253 C-120 225.28 -120 197.56 -120 169 C-123.90766838 170.56306735 -126.88619263 172.04918981 -130.38671875 174.265625 C-131.9190918 175.23048828 -131.9190918 175.23048828 -133.48242188 176.21484375 C-134.54009766 176.88644531 -135.59777344 177.55804688 -136.6875 178.25 C-149.04319242 186.05763183 -149.04319242 186.05763183 -154.5625 189.44140625 C-155.73039062 190.15985718 -155.73039062 190.15985718 -156.921875 190.89282227 C-159.87802479 192.46779164 -161.74368055 192.83301195 -165 192 C-167.875 189.9375 -167.875 189.9375 -170 187 C-170.5625 183.4375 -170.5625 183.4375 -170 180 C-166.6926558 175.90195397 -162.17663203 173.41660892 -157.75 170.6875 C-156.92008545 170.16969971 -156.0901709 169.65189941 -155.23510742 169.1184082 C-153.43529691 167.99599753 -151.63405172 166.87588485 -149.83154297 165.7578125 C-146.96830517 163.98032396 -144.11036577 162.19460853 -141.25390625 160.40625 C-134.13911378 155.95221194 -127.01817492 151.5080393 -119.89746094 147.06347656 C-108.98908682 140.25392316 -98.08731911 133.43504703 -87.22143555 126.55786133 C-79.80008199 121.86463584 -72.35108374 117.21599805 -64.90234375 112.56640625 C-58.75700037 108.72850981 -52.62208883 104.87487269 -46.5 101 C-38.33425963 95.8316326 -30.14179688 90.70674735 -21.94189453 85.59277344 C-17.10402942 82.57349623 -12.2728979 79.54480256 -7.4609375 76.484375 C-6.59984375 75.93716797 -5.73875 75.38996094 -4.8515625 74.82617188 C-3.25359602 73.80916955 -1.65712665 72.78980923 -0.0625 71.76757812 C7.39010364 67.02562364 12.97394176 63.75398385 22 65 C29.56017628 67.91524738 36.30169283 72.64572177 43 77.125 C51.5891748 82.80113104 60.26164018 88.28599627 69.0703125 93.61328125 C74.10193146 96.65642197 79.05930528 99.81140186 84 103 C89.99500997 98.03805145 95.46427037 92.6523376 100.9375 87.125 C101.81212891 86.24585937 102.68675781 85.36671875 103.58789062 84.4609375 C105.72757048 82.3095654 107.86486597 80.15588208 110 78 C108.21494273 74.11523649 105.81272414 71.7642735 102.5625 69.0625 C101.99466797 68.58868896 101.42683594 68.11487793 100.84179688 67.62670898 C68.02411399 40.81194179 27.94694198 22.37159126 -14 16 C-15.13171631 15.82484863 -16.26343262 15.64969727 -17.42944336 15.46923828 C-28.40142062 13.92416115 -39.24144652 13.60020873 -50.3125 13.625 C-51.23108795 13.62554382 -52.1496759 13.62608765 -53.09609985 13.62664795 C-76.84192256 13.69099907 -99.23874252 17.12607517 -122 24 Z M17 82 C6.79043735 88.04297886 -3.35649512 94.14863103 -13.28540039 100.64404297 C-19.43178101 104.6564116 -25.64575522 108.55524419 -31.875 112.4375 C-39.09632765 116.93811618 -46.31101428 121.44787707 -53.5 126 C-60.75266346 130.59181667 -68.02928827 135.14431097 -75.3125 139.6875 C-89.34163327 147.44765714 -89.34163327 147.44765714 -102 157 C-102.09526806 159.95246354 -102.12552452 162.88148421 -102.11352539 165.83422852 C-102.11367142 166.76096375 -102.11381744 167.68769897 -102.1139679 168.64251709 C-102.11326838 171.72133687 -102.10547421 174.80009697 -102.09765625 177.87890625 C-102.09579221 180.00740018 -102.09436824 182.13589453 -102.09336853 184.26438904 C-102.08954228 189.8786232 -102.07971108 195.49283168 -102.06866455 201.10705566 C-102.05845273 206.83113253 -102.0538714 212.55521353 -102.04882812 218.27929688 C-102.03808891 229.51954256 -102.0210112 240.75976915 -102 252 C-100.89483032 252.48702393 -100.89483032 252.48702393 -99.76733398 252.98388672 C-98.79094971 253.41975098 -97.81456543 253.85561523 -96.80859375 254.3046875 C-95.84493896 254.73249512 -94.88128418 255.16030273 -93.88842773 255.60107422 C-88.13453984 258.38780211 -83.09280355 262.17195019 -78 266 C-71.18813287 259.30383549 -64.38974409 252.59436242 -57.60831356 245.86737442 C-54.45919912 242.7443859 -51.30559 239.62623034 -48.14135742 236.51855469 C-45.08950936 233.52091825 -42.04993555 230.5113335 -39.01858711 227.49297333 C-37.85826563 226.34191115 -36.69354266 225.19526888 -35.52445793 224.05310822 C-33.89116812 222.45596342 -32.2740516 220.8440029 -30.65991211 219.22753906 C-29.73391708 218.31264709 -28.80792206 217.39775513 -27.85386658 216.45513916 C-25.75140105 214.22556079 -25.75140105 214.22556079 -26.13648987 211.85296631 C-26.56392738 210.93574799 -26.56392738 210.93574799 -27 210 C-27.57234375 208.576875 -27.57234375 208.576875 -28.15625 207.125 C-28.5996875 206.09375 -29.043125 205.0625 -29.5 204 C-34.81676453 191.63543133 -34.96760842 176.56506842 -30.3203125 163.890625 C-23.62929669 149.24165547 -13.56903522 141.14418425 1 135 C14.51871923 130.06215612 29.51485435 132.96237705 42.25 138.6875 C43.83831843 139.4480084 45.42367257 140.21493929 47 141 C55.60762658 133.2608907 63.87466955 125.24327879 72 117 C67.71513632 113.38091195 63.12382274 110.45657666 58.375 107.5 C56.67307547 106.43375593 54.97125559 105.3673448 53.26953125 104.30078125 C51.96363037 103.48407959 51.96363037 103.48407959 50.63134766 102.65087891 C48.06476933 101.04063557 45.50565922 99.41925013 42.94921875 97.79296875 C34.39393492 92.35324188 25.82184752 87.00080777 17 82 Z M120.75341797 93.01953125 C119.38660889 94.40205078 119.38660889 94.40205078 117.9921875 95.8125 C117.50670441 96.30081299 117.02122131 96.78912598 116.52102661 97.29223633 C114.96760869 98.85687218 113.42127781 100.42831049 111.875 102 C110.82467739 103.06035033 109.77390178 104.12025215 108.72265625 105.1796875 C106.14315584 107.78126956 103.56996863 110.38899773 101 113 C104.23806378 115.66519229 107.50492241 118.04396926 111.0703125 120.25 C112.03984863 120.85247559 113.00938477 121.45495117 114.00830078 122.07568359 C115.03681152 122.71070801 116.06532227 123.34573242 117.125 124 C119.29189026 125.34599427 121.45855421 126.69235295 123.625 128.0390625 C124.70136719 128.70711914 125.77773438 129.37517578 126.88671875 130.06347656 C131.31115972 132.81556767 135.72034407 135.59138506 140.125 138.375 C140.8888501 138.85678711 141.6527002 139.33857422 142.43969727 139.83496094 C146.0468244 142.11429922 149.64144216 144.41028484 153.21484375 146.7421875 C153.86759277 147.16709473 154.5203418 147.59200195 155.19287109 148.02978516 C156.40296429 148.81955347 157.61050618 149.61325068 158.81494141 150.41162109 C161.66785439 152.40639148 161.66785439 152.40639148 165 153 C163.0974258 146.48678697 160.51656413 140.82927081 157.0625 135 C156.58377441 134.18402344 156.10504883 133.36804688 155.61181641 132.52734375 C148.09849219 119.92152004 139.47974738 108.18921002 130 97 C129.02063423 95.77099197 128.04143059 94.54185469 127.0625 93.3125 C126.0415625 92.1678125 126.0415625 92.1678125 125 91 C122.74441812 90.77715765 122.74441812 90.77715765 120.75341797 93.01953125 Z M84.29443359 129.47851562 C83.15729183 130.61597526 82.02566772 131.75896718 80.8984375 132.90625 C80.00374252 133.80518982 80.00374252 133.80518982 79.0909729 134.72229004 C77.18092088 136.64356607 75.27792673 138.57166895 73.375 140.5 C72.08379119 141.80123574 70.79213026 143.10202301 69.5 144.40234375 C66.32805748 147.5963761 63.16242928 150.79654938 60 154 C60.62575928 155.43762695 60.62575928 155.43762695 61.26416016 156.90429688 C61.81425307 158.17572697 62.36421354 159.44721438 62.9140625 160.71875 C63.32603882 161.66379395 63.32603882 161.66379395 63.74633789 162.62792969 C69.36195023 175.64323696 69.83779665 189.56370439 65 203 C59.20951334 216.27662985 50.26259621 225.31248984 37.109375 231.3203125 C24.70588982 235.86825707 9.74420918 235.90904064 -2.58984375 231.16796875 C-5 230 -5 230 -7.56640625 228.30078125 C-9.8069492 226.8311068 -9.8069492 226.8311068 -11.80717468 227.10498047 C-14.98485672 228.4019773 -17.11831815 230.64262368 -19.51879883 233.01953125 C-20.05743561 233.54166702 -20.59607239 234.0638028 -21.15103149 234.60176086 C-22.92827973 236.33013482 -24.693564 238.07007331 -26.45703125 239.8125 C-27.06140203 240.4071405 -27.66577282 241.00178101 -28.28845787 241.61444092 C-31.48584914 244.76103045 -34.67413101 247.91652794 -37.85522461 251.07958984 C-41.14016466 254.34248536 -44.45420253 257.57405046 -47.77605152 260.79930115 C-50.32785213 263.28765762 -52.85703319 265.79809833 -55.38062096 268.31503296 C-56.59277531 269.51627423 -57.81329207 270.70913862 -59.04221535 271.89321899 C-65.76377947 277.89872498 -65.76377947 277.89872498 -69.54743958 285.71603394 C-69.16117325 289.87412473 -67.91282715 293.01681929 -65.0625 296.125 C-60.50611109 301.67570879 -59.52877823 307.31069569 -59.6796875 314.37109375 C-60.33097877 319.71644768 -62.01351608 325.18723901 -66.0546875 328.875 C-68.63056229 331.688807 -68.80237731 333.88220532 -69.375 337.625 C-71.05425226 346.44336844 -74.96510223 353.36161245 -81 360 C-81.69061523 360.41419189 -82.38123047 360.82838379 -83.09277344 361.25512695 C-85.26922899 362.88606873 -85.26922899 362.88606873 -85.45410156 365.72729492 C-85.4331543 366.80084229 -85.41220703 367.87438965 -85.390625 368.98046875 C-85.37773437 370.14384766 -85.36484375 371.30722656 -85.3515625 372.50585938 C-85.31804687 373.72080078 -85.28453125 374.93574219 -85.25 376.1875 C-85.23195312 377.41404297 -85.21390625 378.64058594 -85.1953125 379.90429688 C-85.14811124 382.93697759 -85.08227677 385.96810087 -85 389 C-83.97519531 389.32613281 -82.95039063 389.65226562 -81.89453125 389.98828125 C-80.53374877 390.42936247 -79.17307751 390.87078693 -77.8125 391.3125 C-77.13896484 391.52583984 -76.46542969 391.73917969 -75.77148438 391.95898438 C-75.11083984 392.17490234 -74.45019531 392.39082031 -73.76953125 392.61328125 C-73.16729736 392.80704346 -72.56506348 393.00080566 -71.94458008 393.20043945 C-70 394 -70 394 -67.83280945 395.53166199 C-64.25413263 397.38660751 -61.74902022 397.3425805 -57.73046875 397.29296875 C-57.04946609 397.28872391 -56.36846344 397.28447906 -55.66682434 397.28010559 C-53.50663541 397.2634061 -51.34740358 397.22577312 -49.1875 397.1875 C-47.71681042 397.17244174 -46.24610611 397.15875534 -44.77539062 397.14648438 C-41.18328643 397.11353214 -37.59173674 397.06181173 -34 397 C-33.99853344 396.36223601 -33.99706688 395.72447203 -33.99555588 395.06738186 C-33.95847086 379.53435785 -33.89943394 364.0015948 -33.81609726 348.46875668 C-33.77632276 340.95711354 -33.74392227 333.44557492 -33.72900391 325.93383789 C-33.71597906 319.3850183 -33.68899343 312.83642883 -33.64538693 306.28773886 C-33.62279046 302.82162501 -33.6070882 299.3557948 -33.60811615 295.88960075 C-33.60900295 292.01592627 -33.57871505 288.14282974 -33.54589844 284.26928711 C-33.55344398 282.55377403 -33.55344398 282.55377403 -33.56114197 280.80360413 C-33.47622988 274.3257611 -32.9281237 270.23555895 -29 265 C-21.58320048 259.35464148 -12.48421947 260.43775554 -3.5859375 260.50390625 C-1.88538552 260.50375108 -0.18483319 260.50225918 1.51571655 260.49949646 C5.06792971 260.49811663 8.61973705 260.51060298 12.171875 260.53344727 C16.71580681 260.56187422 21.25906724 260.55907731 25.80304909 260.54635715 C29.31016742 260.53939084 32.81713156 260.54719938 36.32423019 260.55961418 C37.99949934 260.56411638 39.6747851 260.56447629 41.35005569 260.56054878 C43.69286105 260.55762601 46.03475189 260.5741917 48.37744141 260.59594727 C49.06330826 260.59144562 49.74917511 260.58694397 50.45582581 260.58230591 C55.67703197 260.66253552 59.75020096 261.94792677 63.64453125 265.5 C67.01148715 269.82411728 68.11992126 272.65744609 68.15821838 278.06828308 C68.17290161 279.63950172 68.17290161 279.63950172 68.18788147 281.24246216 C68.19363693 282.39116791 68.1993924 283.53987366 68.20532227 284.72338867 C68.21522186 285.9332695 68.22512146 287.14315033 68.23532104 288.38969421 C68.26151452 291.70758731 68.2833742 295.02545627 68.30332303 298.34338927 C68.32518984 301.81076506 68.35257513 305.27809712 68.37937927 308.74543762 C68.42929676 315.31143412 68.47423909 321.87745491 68.51740164 328.44349891 C68.57162523 336.65181841 68.63247606 344.86008703 68.69335938 353.06835938 C68.80194799 367.71220051 68.90049677 382.35608805 69 397 C91.11 397 113.22 397 136 397 C136.2204827 366.54455533 136.40511166 336.08971079 136.51065329 305.63371244 C136.52316027 302.03762655 136.5361035 298.44154235 136.54931641 294.84545898 C136.55193951 294.12954761 136.55456261 293.41363624 136.55726521 292.67603058 C136.60077135 281.08601404 136.67961224 269.49649382 136.77152796 257.90677165 C136.86506482 246.01338831 136.92059201 234.12026477 136.94088495 222.2265287 C136.95337188 215.54631121 136.98462737 208.86699692 137.05730057 202.18713188 C137.12514335 195.90036857 137.146123 189.6151948 137.13107681 183.3281002 C137.13382953 181.020158 137.15374427 178.71216305 137.19205475 176.4045372 C137.91375187 164.64824324 137.91375187 164.64824324 133.84670639 154.1380024 C131.26929934 152.29370315 128.94546269 151.1372851 126 150 C124.56795948 149.13778651 123.14908032 148.25270572 121.75390625 147.33203125 C120.35862809 146.48910554 118.96144638 145.64932371 117.5625 144.8125 C112.56960685 141.80041324 107.59945394 138.76167589 102.68359375 135.625 C101.3840979 134.79585083 101.3840979 134.79585083 100.05834961 133.94995117 C98.37581635 132.87305924 96.69556678 131.79258943 95.01782227 130.70825195 C93.87978149 129.98061646 93.87978149 129.98061646 92.71875 129.23828125 C91.71231445 128.589198 91.71231445 128.589198 90.68554688 127.92700195 C87.47860266 126.16327553 87.06693816 126.93867928 84.29443359 129.47851562 Z M-9.875 163.3125 C-16.07744097 171.97577022 -16.96367533 180.46134546 -16 191 C-15.25624393 193.92800522 -14.31347768 196.26358816 -13 199 C-9.55323 197.51657 -7.32656699 195.56949812 -4.69042969 192.91748047 C-3.84986023 192.07675995 -3.00929077 191.23603943 -2.14324951 190.36984253 C-1.24519592 189.46146637 -0.34714233 188.55309021 0.578125 187.6171875 C1.96798615 186.22308151 1.96798615 186.22308151 3.38592529 184.80081177 C5.84315789 182.3359615 8.29432361 179.86516334 10.7442627 177.39306641 C13.24773809 174.86909235 15.75692063 172.35080612 18.265625 169.83203125 C23.18267525 164.89356403 28.09333788 159.948788 33 155 C19.37784359 144.21456163 0.27462709 151.12018066 -9.875 163.3125 Z M41.84741211 172.00732422 C40.96657455 172.88178192 40.085737 173.75623962 39.1782074 174.65719604 C38.21105077 175.62282417 37.24410118 176.58865971 36.27734375 177.5546875 C35.29235776 178.53646303 34.30729517 179.51816172 33.32215881 180.49978638 C31.25488911 182.56105726 29.18970914 184.62439692 27.12573242 186.68896484 C24.47525712 189.33954182 21.81797087 191.98317405 19.15885067 194.62507439 C17.12147561 196.65135357 15.08863886 198.68213845 13.05706978 200.71423721 C12.07902617 201.69109713 11.09935231 202.66632755 10.11805534 203.63991928 C8.7483836 204.99983994 7.38560828 206.366696 6.02319336 207.73388672 C4.85523476 208.89970779 4.85523476 208.89970779 3.66368103 210.08908081 C1.78112306 211.82912693 1.78112306 211.82912693 2 214 C10.36282822 218.01415755 19.85841249 218.466637 28.8125 215.9375 C37.43102882 212.49329238 43.81411992 206.19734848 48 198 C52.19401477 187.91212356 51.85164279 180.15572081 47.875 170.08984375 C47.58625 169.40019531 47.2975 168.71054688 47 168 C44.95732711 168 43.16731129 170.69387996 41.84741211 172.00732422 Z M154 169 C154 235.99 154 302.98 154 372 C171.07216347 354.92783653 178.50236105 321.88494936 183.25 298.8125 C183.40130371 298.07797607 183.55260742 297.34345215 183.70849609 296.58666992 C186.53948085 281.81596699 187.40813862 267.13293552 187.375 252.125 C187.37478851 251.23358307 187.37457703 250.34216614 187.37435913 249.42373657 C187.33794859 233.95857663 186.1004727 219.18390904 183 204 C182.81808105 203.02160156 182.63616211 202.04320312 182.44873047 201.03515625 C181.9243079 198.24198509 181.34999211 195.46531726 180.75 192.6875 C180.59442627 191.88658936 180.43885254 191.08567871 180.27856445 190.26049805 C178.73326395 183.87478116 175.44125416 181.38903569 170 178 C168.74173278 177.14910953 167.48389906 176.29757757 166.2265625 175.4453125 C165.02806279 174.66874681 163.82755815 173.89526601 162.625 173.125 C161.70267578 172.52171875 161.70267578 172.52171875 160.76171875 171.90625 C157.63435049 169.71444044 157.63435049 169.71444044 154 169 Z M-131.8203125 280.05859375 C-135.37681187 285.91150828 -136.33949433 292.092415 -136.7890625 298.8359375 C-137 301 -137 301 -138 304 C-139.32467746 304.6837045 -140.65863633 305.34964186 -142 306 C-144.34549674 309.51824511 -144.57991403 310.85775694 -144 315 C-141.79197732 317.70817728 -141.79197732 317.70817728 -139 320 C-137.68 321.32 -136.36 322.64 -135 324 C-120.48 309.48 -105.96 294.96 -91 280 C-96.25473879 273.69431346 -99.01298365 270.68236669 -107.0546875 269.58203125 C-117.13331621 269.14331447 -125.54569941 271.85196702 -131.8203125 280.05859375 Z M-16 278 C-16 317.27 -16 356.54 -16 397 C6.11 397 28.22 397 51 397 C51 357.73 51 318.46 51 278 C28.89 278 6.78 278 -16 278 Z M-87.73071289 301.63305664 C-88.4705542 302.38449951 -89.21039551 303.13594238 -89.97265625 303.91015625 C-91.19952148 305.14862305 -91.19952148 305.14862305 -92.45117188 306.41210938 C-94.16491805 308.15149124 -95.87846632 309.89106812 -97.59179688 311.63085938 C-101.93098643 316.01063371 -106.32237466 320.21613798 -111.00170898 324.22875977 C-114.83431745 327.62589776 -118.4002836 331.2972322 -122 334.9375 C-122.77472656 335.71673828 -123.54945313 336.49597656 -124.34765625 337.29882812 C-126.23410757 339.1969242 -128.11816245 341.09733149 -130 343 C-127.64791172 348.07500129 -124.30952563 350.60659831 -119.1875 352.75 C-111.76493687 355.27978744 -104.98301302 354.30906743 -98 351 C-91.80534666 347.23851711 -88.23624577 341.82409919 -86 335 C-85.38007454 331.02214495 -84.94777056 327.13956708 -84.65234375 323.125 C-84 320 -84 320 -82.0546875 318.671875 C-81.37664062 318.45015625 -80.69859375 318.2284375 -80 318 C-77.62120714 315.70323448 -77.02610614 314.5743351 -76.875 311.25 C-78.48653457 306.59445569 -81.48288056 303.39643397 -85 300 C-86.27536958 299.88561849 -86.27536958 299.88561849 -87.73071289 301.63305664 Z M-148.56420898 362.31536865 C-149.19286865 362.95121887 -149.82152832 363.58706909 -150.46923828 364.2421875 C-151.13277313 364.9054303 -151.79630798 365.5686731 -152.47994995 366.25201416 C-154.68150836 368.45497075 -156.8758901 370.6649368 -159.0703125 372.875 C-160.59159542 374.40001131 -162.11331923 375.92458291 -163.63546753 377.44873047 C-167.64791997 381.46883305 -171.65433136 385.49490479 -175.6595459 389.5222168 C-179.74468385 393.62778347 -183.83546262 397.7277209 -187.92578125 401.828125 C-195.95607557 409.87989358 -203.98000402 417.93797459 -212 426 C-208.18105605 434.23456442 -198.29975584 439.59989109 -191.125 444.9375 C-190.1800769 445.64628296 -190.1800769 445.64628296 -189.21606445 446.36938477 C-185.92379259 448.78564662 -182.91817915 450.69642329 -179 452 C-178.99589111 451.37657715 -178.99178223 450.7531543 -178.98754883 450.11083984 C-178.78272528 432.32560138 -177.45633161 417.81123084 -165 404 C-156.88982093 396.13231798 -147.79714073 391.9555675 -137 389 C-136.85458033 384.77119589 -136.76588473 380.54303587 -136.6875 376.3125 C-136.64560547 375.11431641 -136.60371094 373.91613281 -136.56054688 372.68164062 C-136.17538541 365.6041151 -136.17538541 365.6041151 -139.39453125 359.66796875 C-144.00980155 356.71336542 -144.97992858 358.7482289 -148.56420898 362.31536865 Z M-119 371 C-119 376.61 -119 382.22 -119 388 C-113.72 388 -108.44 388 -103 388 C-103 382.39 -103 376.78 -103 371 C-108.28 371 -113.56 371 -119 371 Z M-152 416 C-158.18675093 423.50724322 -161.27428414 429.71448297 -161.1953125 439.5859375 C-161.1924826 440.28772125 -161.18965271 440.989505 -161.18673706 441.71255493 C-161.17562512 443.93355028 -161.15053834 446.15412845 -161.125 448.375 C-161.11495854 449.88931705 -161.10583473 451.40364049 -161.09765625 452.91796875 C-161.07571554 456.61211258 -161.04124875 460.30601551 -161 464 C-131.50378325 478.37018385 -98.49393839 490.11986308 -65.25317383 490.01635742 C-64.26787186 490.01399582 -63.28256989 490.01163422 -62.26741028 490.00920105 C-61.51916489 490.0061647 -60.77091949 490.00312836 -60 490 C-59.92357835 482.35032593 -59.87124451 474.70075131 -59.83520508 467.05078125 C-59.82017169 464.45145997 -59.79973954 461.85216383 -59.77368164 459.25292969 C-59.73705899 455.50449395 -59.72021848 451.75639528 -59.70703125 448.0078125 C-59.69154739 446.85636749 -59.67606354 445.70492249 -59.66011047 444.51858521 C-59.65760597 432.35614512 -62.32796655 423.75339971 -70.921875 415.0546875 C-79.32759005 407.26799797 -87.57763767 405.85300953 -98.7265625 405.76171875 C-100.14175674 405.74961113 -100.14175674 405.74961113 -101.58554077 405.73725891 C-103.58093447 405.72345306 -105.57635145 405.71271532 -107.57177734 405.70483398 C-109.59658815 405.69333858 -111.62136924 405.67292566 -113.64599609 405.64331055 C-127.89037119 405.43516825 -141.20881539 405.29988024 -152 416 Z M-48 415 C-46.35 420.61 -44.7 426.22 -43 432 C-42.55398749 436.90646786 -42.27669433 441.4606 -42.29296875 446.34765625 C-42.27784744 447.61097275 -42.26272614 448.87428925 -42.24714661 450.17588806 C-42.20479001 454.13828104 -42.19548179 458.09990471 -42.1875 462.0625 C-42.16703409 464.77934975 -42.13926807 467.49610878 -42.11132812 470.21289062 C-42.04899031 476.80860144 -42.0136445 483.40401796 -42 490 C-33.35605712 490.0983688 -33.35605712 490.0983688 -24.7578125 489.30078125 C-23.68297607 489.14641602 -22.60813965 488.99205078 -21.50073242 488.83300781 C-20.38674072 488.66124023 -19.27274902 488.48947266 -18.125 488.3125 C-16.94462158 488.13170898 -15.76424316 487.95091797 -14.5480957 487.76464844 C24.14424291 481.62823432 62.33796638 466.80577565 93 442 C93.83015625 441.35933594 94.6603125 440.71867187 95.515625 440.05859375 C104.91472096 432.74325963 113.76907455 424.60505842 122 416 C122 415.67 122 415.34 122 415 C65.9 415 9.8 415 -48 415 Z " fill="#F44D00" transform="translate(307,4)"/>
<path d="M0 0 C2.70087413 0.72422633 4.47459506 1.99615261 6.09765625 4.26953125 C8.16377901 9.80481827 8.11905545 17.27712328 6.09765625 22.82421875 C4.9375 24.51953125 4.9375 24.51953125 1.9375 26.51953125 C-5.01051619 27.30398469 -5.01051619 27.30398469 -8.78125 24.4921875 C-11.60864239 20.80786282 -11.81110973 17.98596268 -11.6875 13.51953125 C-11.70683594 12.82085937 -11.72617187 12.1221875 -11.74609375 11.40234375 C-11.70932262 7.50460436 -11.17490761 5.66474039 -8.7734375 2.5625 C-5.48862066 0.08705446 -3.97639989 -0.3238356 0 0 Z " fill="#F44D00" transform="translate(318.0625,323.48046875)"/>
</svg>
