<?xml version="1.0" encoding="UTF-8"?>
<svg version="1.1" xmlns="http://www.w3.org/2000/svg" width="512" height="512">
<path d="M0 0 C1.13173747 -0.00551503 1.13173747 -0.00551503 2.28633833 -0.01114148 C4.81634671 -0.02216058 7.346314 -0.0260192 9.87634277 -0.02983093 C11.6899529 -0.03609709 13.50356175 -0.04274403 15.31716919 -0.04974365 C21.27633777 -0.07077421 27.23550656 -0.08114739 33.19470215 -0.09111023 C35.24865228 -0.09515863 37.30260227 -0.09927558 39.35655212 -0.10346031 C49.01012312 -0.1225124 58.66368648 -0.13674152 68.31727266 -0.14507228 C79.4456222 -0.15483505 90.57377233 -0.18112947 101.70205164 -0.22157317 C110.31201673 -0.25178583 118.92192484 -0.26654617 127.53194189 -0.26985329 C132.66988825 -0.27219855 137.80762157 -0.28109014 142.94551086 -0.30631447 C147.78499888 -0.32968936 152.62413505 -0.3337907 157.46366501 -0.32355309 C159.23245289 -0.32305984 161.00125865 -0.32931731 162.76999283 -0.34310913 C185.91173032 -0.51334765 199.48326947 8.21271728 215.72595215 24.20967102 C218.50607517 26.98032173 221.13614752 29.82607882 223.69006348 32.80317688 C227.49237943 37.15878506 231.5212787 41.24071543 235.63220215 45.30342102 C236.38255737 46.04998962 237.1329126 46.79655823 237.90600586 47.56575012 C240.28105135 49.92869127 242.65932031 52.28834472 245.03845215 54.64717102 C248.17684432 57.75877748 251.31177959 60.87380857 254.44470215 63.99092102 C255.15219604 64.69011658 255.85968994 65.38931213 256.58862305 66.10969543 C260.51799818 70.01991542 264.22918253 74.04181153 267.84869385 78.23924255 C270.50908121 81.24312115 273.36900633 84.02425155 276.24938965 86.81513977 C277.5076548 88.05100721 278.76545258 89.28735063 280.02282715 90.52412415 C281.96183053 92.42627084 283.90363467 94.3251537 285.85388184 96.21577454 C298.87210276 108.85624931 312.03559627 122.61542619 312.65870667 141.86148071 C312.66158728 143.32169993 312.65898869 144.7819365 312.65197754 146.24214172 C312.65212357 147.04266464 312.65226959 147.84318756 312.65242004 148.66796875 C312.6517257 151.30299122 312.64395571 153.93794221 312.6361084 156.57295227 C312.63424252 158.40426596 312.63281942 160.23558016 312.63182068 162.06689453 C312.62800887 166.87880337 312.61819 171.69068186 312.6071167 176.50257874 C312.59687384 181.41600636 312.5923169 186.32943891 312.58728027 191.24287415 C312.57656652 200.87765308 312.55950615 210.51240952 312.53845215 220.14717102 C313.47871246 220.45460739 314.41897278 220.76204376 315.38772583 221.07879639 C318.18210823 222.02633894 320.68296746 223.10645262 323.31188965 224.43232727 C341.62122187 233.51280646 360.37430462 240.69202716 379.85339355 246.85322571 C385.65960347 248.71872121 390.73789365 250.39049999 394.28845215 255.64717102 C394.6957959 256.23498352 395.10313965 256.82279602 395.52282715 257.42842102 C397.24369071 260.34065167 397.66746701 262.84285331 397.69958496 266.14936829 C397.7091925 266.95193558 397.71880005 267.75450287 397.72869873 268.58139038 C397.73507355 269.88432289 397.73507355 269.88432289 397.74157715 271.21357727 C397.74727722 272.12107224 397.75297729 273.0285672 397.7588501 273.96356201 C397.76830796 275.89446346 397.77483719 277.82538111 397.77868652 279.75630188 C397.78824382 282.64666706 397.81919451 285.53627425 397.85095215 288.4264679 C397.9396206 303.75942811 396.46890173 318.44664434 391.85095215 333.14717102 C391.59749023 333.9691095 391.34402832 334.79104797 391.08288574 335.63789368 C376.83567641 380.24268401 346.2213572 408.74178959 308.14001465 433.76387024 C306.00780265 435.16734529 303.88255895 436.58099874 301.75720215 437.99482727 C300.38261401 438.90040066 299.0076288 439.80537171 297.63220215 440.70967102 C297.00712769 441.12732727 296.38205322 441.54498352 295.73803711 441.97529602 C290.20565158 445.58290129 285.52460659 447.44245815 278.91345215 447.20967102 C275.25537979 447.05797958 275.25537979 447.05797958 271.67587376 447.64049119 C269.29926732 448.20387024 267.19580672 448.27615144 264.75376892 448.2813921 C263.78830454 448.28584994 262.82284016 448.29030779 261.82811928 448.29490072 C260.24118546 448.29462417 260.24118546 448.29462417 258.62219238 448.29434204 C257.49609747 448.29801873 256.37000256 448.30169542 255.20978355 448.30548352 C251.42219976 448.31652958 247.6346434 448.3203658 243.8470459 448.32417297 C241.13689438 448.32990498 238.42674697 448.33707097 235.71659851 448.34408569 C227.57279368 448.36383883 219.42898763 448.37391569 211.28516483 448.38281348 C207.44737225 448.38719901 203.60958105 448.3925652 199.77178955 448.39780235 C187.00877163 448.41481488 174.24575457 448.42930754 161.48272705 448.43655109 C158.17138671 448.43846091 154.86004637 448.44038125 151.54870605 448.44233704 C150.31422021 448.44306265 150.31422021 448.44306265 149.05479527 448.44380292 C135.73236899 448.45209756 122.41003267 448.47742478 109.08764565 448.50991771 C95.40074908 448.54302663 81.71389815 448.56100339 68.02696133 448.56419533 C60.34599162 448.56635709 52.66515301 448.57505633 44.98422241 448.60065651 C38.44056589 448.62241611 31.89707232 448.63038827 25.35338372 448.62068973 C22.01807761 448.61615979 18.68337857 448.62015752 15.34807396 448.63745117 C11.72196241 448.65519608 8.09669396 448.64804991 4.47058105 448.63491821 C2.9104159 448.65137208 2.9104159 448.65137208 1.31873226 448.66815835 C-13.25599472 448.54136039 -25.6211668 442.44267651 -36.10217285 432.59638977 C-42.78018474 425.66408273 -46.72955761 418.34193386 -49.46154785 409.14717102 C-49.63882251 408.56291497 -49.81609716 407.97865892 -49.99874377 407.37669814 C-50.584474 404.55498267 -50.58968671 401.91261293 -50.59297562 399.02942467 C-50.59681676 397.76663826 -50.60065791 396.50385186 -50.60461545 395.2027992 C-50.6038352 393.79870751 -50.60295642 392.39461587 -50.60198975 390.99052429 C-50.60457338 389.50102048 -50.60758653 388.01151737 -50.61099315 386.52201521 C-50.61906678 382.42298555 -50.62085292 378.3239734 -50.62159061 374.22493672 C-50.62344056 369.80622846 -50.63098766 365.3875293 -50.63772583 360.96882629 C-50.65131279 351.30341196 -50.65733459 341.63800177 -50.66173649 331.97257948 C-50.66449859 325.93743902 -50.66873592 319.90230017 -50.67324066 313.8671608 C-50.68543436 297.15809161 -50.69573311 280.44902372 -50.69911575 263.73995018 C-50.69933532 262.67033101 -50.69955489 261.60071184 -50.6997811 260.49867997 C-50.69999938 259.42649579 -50.70021766 258.35431162 -50.70044255 257.24963701 C-50.70088602 255.07697256 -50.70133258 252.90430812 -50.70178223 250.73164368 C-50.70200366 249.65392624 -50.70222509 248.5762088 -50.70245323 247.46583326 C-50.70640041 230.00673596 -50.72385156 212.54768042 -50.74714175 195.08859925 C-50.77085969 177.16416597 -50.78331783 159.23975363 -50.78448367 141.3153044 C-50.78540024 131.25122468 -50.79114796 121.18719935 -50.80930328 111.12313461 C-50.82471031 102.55229228 -50.82982121 93.98152114 -50.82156518 85.41066758 C-50.81766067 81.03882201 -50.81857853 76.6671198 -50.83262253 72.2952919 C-50.84537344 68.2892957 -50.84415355 64.28355038 -50.83203182 60.27755447 C-50.83007686 58.83201202 -50.83314393 57.38645174 -50.84187618 55.94093435 C-50.8878639 47.81032634 -50.38793872 40.77255766 -47.46154785 33.14717102 C-46.96654785 31.78978821 -46.96654785 31.78978821 -46.46154785 30.40498352 C-40.50102056 17.69229641 -29.73352714 7.73918445 -16.64904785 2.83467102 C-14.92852355 2.24626661 -13.19979135 1.68096233 -11.46154785 1.14717102 C-10.62564999 0.88065845 -10.62564999 0.88065845 -9.7728653 0.60876179 C-6.52068378 -0.04072795 -3.30235648 -0.00086496 0 0 Z M-22.46154785 34.14717102 C-26.24522369 40.24259152 -28.58371225 45.81213769 -28.59576893 53.01693058 C-28.60022677 54.24985877 -28.60468462 55.48278696 -28.60927755 56.75307661 C-28.60918825 58.12866852 -28.60899839 59.50426042 -28.60871887 60.87985229 C-28.61201752 62.33549486 -28.61574309 63.79113652 -28.61986035 65.246777 C-28.62988864 69.25685133 -28.63359848 73.26691069 -28.63624966 77.27699578 C-28.64015033 81.59824456 -28.64972891 85.91948145 -28.65846252 90.24072266 C-28.67823491 100.68232342 -28.68829468 111.12392517 -28.69719031 121.56553999 C-28.70157243 126.48197662 -28.70693949 131.39841217 -28.71217918 136.31484795 C-28.72919315 152.65757937 -28.74368705 169.00031012 -28.75092793 185.34304905 C-28.75283784 189.58512943 -28.75475817 193.8272098 -28.75671387 198.06929016 C-28.75719761 199.12364818 -28.75768135 200.1780062 -28.75817975 201.26431447 C-28.76647897 218.34196454 -28.79181333 235.41954454 -28.82429454 252.49716402 C-28.85736661 270.02832108 -28.87537687 287.55944253 -28.87857217 305.09063095 C-28.88073725 314.93453466 -28.88948564 324.77833623 -28.91503334 334.62220955 C-28.93674243 343.00644135 -28.94478976 351.39054621 -28.93506656 359.77480293 C-28.93052231 364.05149963 -28.93241525 368.32793442 -28.951828 372.60459518 C-28.9694639 376.52372704 -28.96845873 380.442406 -28.95293071 384.36154269 C-28.95055525 385.77548982 -28.95487505 387.18946834 -28.96675936 388.60336751 C-29.06090576 400.54900761 -27.07635179 409.34524471 -18.7545166 418.16670227 C-13.39823416 422.79299733 -6.41670513 426.27387268 0.73385143 426.27021885 C1.59325649 426.2722099 2.45266156 426.27420095 3.3381092 426.27625233 C4.282653 426.27333949 5.22719681 426.27042665 6.20036316 426.26742554 C7.70491356 426.26870717 7.70491356 426.26870717 9.23985893 426.2700147 C12.61634475 426.27166787 15.99278141 426.26615076 19.3692627 426.26069641 C21.7834676 426.26041448 24.19767259 426.26057239 26.61187744 426.26113892 C31.81747098 426.26136697 37.0230533 426.25852208 42.22864342 426.25290108 C49.75508316 426.2447793 57.28151684 426.24217016 64.80796049 426.24091309 C77.01866492 426.23872364 89.22936267 426.23206644 101.44006348 426.22261047 C113.30269334 426.2134336 125.1653214 426.20635411 137.0279541 426.20210266 C137.75897985 426.20183994 138.49000559 426.20157721 139.24318364 426.20130653 C142.91046918 426.20000151 146.57775473 426.19873779 150.2450403 426.19749463 C180.67618236 426.18712534 211.10731633 426.16943567 241.53845215 426.14717102 C238.36283961 423.57925402 235.14956336 421.16035473 231.78112793 418.84980774 C224.22924276 413.63818175 217.49780655 407.85306562 210.91491699 401.47236633 C209.75171089 400.35248646 208.56368932 399.25846833 207.3704834 398.17060852 C195.99724993 387.52432399 187.59866784 373.90731661 180.53845215 360.14717102 C180.22037598 359.53551086 179.9022998 358.92385071 179.57458496 358.2936554 C167.13849709 334.09721274 163.20986775 308.60367688 163.03845215 281.64717102 C163.02791809 280.78934021 163.01738403 279.9315094 163.00653076 279.04768372 C162.98296596 276.56975845 162.98978835 274.09386376 163.00720215 271.61592102 C162.99534378 270.51247345 162.99534378 270.51247345 162.98324585 269.38673401 C163.10750342 262.34587507 165.37424991 257.3624221 170.29162598 252.32905579 C173.95487766 249.86733082 177.30234784 248.528196 181.4876709 247.23701477 C183.06099228 246.72334125 184.63423117 246.20941501 186.20739746 245.69526672 C187.02647583 245.43299286 187.8455542 245.17071899 188.68945312 244.90049744 C216.4416033 235.97443951 242.02349879 224.20536776 266.85974121 208.92573547 C271.63599235 206.00132201 274.89547589 205.00837503 280.47595215 205.02217102 C281.51622559 205.0195929 282.55649902 205.01701477 283.6282959 205.01435852 C286.13394542 205.12871031 288.13950699 205.49838956 290.53845215 206.14717102 C290.56162924 198.0020776 290.57939463 189.85699798 290.59026432 181.71187973 C290.59548139 177.92971888 290.60255772 174.1475806 290.6138916 170.36543274 C290.62476223 166.71500171 290.63073785 163.06459239 290.63332939 159.41414642 C290.6351761 158.0219056 290.63878225 156.62966596 290.64418221 155.23743439 C290.65144791 153.28645996 290.65186068 151.33546366 290.65197754 149.38447571 C290.65419815 148.27416992 290.65641876 147.16386414 290.65870667 146.01991272 C290.55510935 143.54509237 290.25984329 141.50373478 289.53845215 139.14717102 C288.24085213 139.13837166 288.24085213 139.13837166 286.91703796 139.12939453 C278.72339493 139.07124261 270.53001798 138.99903891 262.33663464 138.91145611 C258.12536254 138.86692465 253.91418336 138.82763176 249.70275879 138.80073547 C245.63065185 138.7745291 241.55890583 138.7340076 237.48702431 138.68398476 C235.94152667 138.66743225 234.39596677 138.65584625 232.8503933 138.64955711 C216.22300222 138.57511961 201.02803047 135.25784333 188.56970215 123.40888977 C179.87201378 113.7243483 174.48782861 101.89479374 174.33312988 88.90010071 C174.32323029 88.17775238 174.31333069 87.45540405 174.3031311 86.71116638 C174.27161731 84.3304926 174.24679885 81.94979889 174.2220459 79.56904602 C174.20146762 77.91565948 174.18047092 76.26227811 174.15907288 74.60890198 C174.10394241 70.26228519 174.05449342 65.91562164 174.00622559 61.56892395 C173.95594458 57.13142242 173.90029299 52.6939886 173.84509277 48.25654602 C173.73762162 39.55347832 173.63615223 30.85035387 173.53845215 22.14717102 C150.63326538 22.05364273 127.7281102 21.98315015 104.82277107 21.93992233 C94.18691745 21.91931554 83.55118263 21.89123089 72.91540527 21.84541321 C63.64299274 21.80548785 54.37066627 21.77972453 45.09817016 21.77081704 C40.19048206 21.76561196 35.28304011 21.75341733 30.37543106 21.72425079 C25.75105767 21.69699164 21.12703057 21.68874718 16.50258446 21.6947403 C14.8103554 21.69364474 13.11811411 21.68575358 11.42595482 21.67034912 C-2.29236398 21.55164788 -13.0516463 23.25247238 -22.46154785 34.14717102 Z M195.53845215 37.14717102 C195.46208999 44.67273931 195.40972138 52.19820684 195.37365723 59.72407532 C195.35861505 62.28173049 195.33817626 64.83936006 195.31213379 67.39692688 C195.27555011 71.08327065 195.25867947 74.76927193 195.2454834 78.45576477 C195.22999954 79.59049728 195.21451569 80.7252298 195.19856262 81.89434814 C195.19647694 91.83930184 197.05252532 99.33424787 203.4486084 107.06904602 C211.31456885 114.89089828 220.34240868 117.37535749 231.10728455 117.37376404 C232.72643517 117.35828018 232.72643517 117.35828018 234.3782959 117.34248352 C235.50038956 117.33965363 236.62248322 117.33682373 237.77857971 117.33390808 C241.34448133 117.32275877 244.91012709 117.29766353 248.47595215 117.27217102 C250.90107872 117.26213445 253.32620924 117.25300978 255.75134277 117.24482727 C261.68046578 117.22283661 267.60944068 117.18941129 273.53845215 117.14717102 C269.90998021 112.81942458 266.19067293 108.68430423 262.1673584 104.71357727 C261.68194077 104.23194626 261.19652313 103.75031525 260.69639587 103.25408936 C258.65599071 101.22975054 256.60958584 99.2115197 254.56359863 97.19282532 C253.05435084 95.70191531 251.54831557 94.20780996 250.0423584 92.71357727 C249.15363037 91.83645081 248.26490234 90.95932434 247.34924316 90.05561829 C245.2080033 87.89027225 243.20612725 85.63387017 241.21838379 83.32710266 C237.39233328 78.91497416 233.30691298 74.80630379 229.15563965 70.70185852 C228.37834503 69.92835052 227.60105042 69.15484253 226.80020142 68.3578949 C224.34038548 65.91019004 221.87734227 63.46577426 219.41345215 61.02217102 C216.15792044 57.79332921 212.90577979 54.5611264 209.65563965 51.32685852 C208.54610428 50.22977066 208.54610428 50.22977066 207.41415405 49.11051941 C204.33727073 46.04820184 201.34335018 42.99810485 198.59362793 39.63594055 C197.91541992 38.81464661 197.23721191 37.99335266 196.53845215 37.14717102 C196.20845215 37.14717102 195.87845215 37.14717102 195.53845215 37.14717102 Z M279.53845215 226.14717102 C278.69669434 226.70662415 277.85493652 227.26607727 276.9876709 227.84248352 C250.75414929 244.92714165 222.33375821 256.99694008 192.5994873 266.48701477 C189.90455852 267.35020921 187.22082776 268.24582348 184.53845215 269.14717102 C183.53964211 314.15508795 193.55824507 351.56392996 224.88146973 384.87593079 C232.92132507 393.17676444 242.02321721 399.65366609 251.53845215 406.14717102 C252.66591691 406.92686789 253.79284007 407.70734834 254.91931152 408.48847961 C257.96368094 410.59781079 261.01868183 412.69089284 264.08135986 414.77354431 C265.29862031 415.60314439 266.51337071 416.43643996 267.7255249 417.27348328 C269.43354925 418.44987616 271.15207921 419.60901796 272.87438965 420.76435852 C273.8700293 421.4409552 274.86566895 422.11755188 275.89147949 422.81465149 C278.34145671 424.36460019 278.34145671 424.36460019 280.47888184 423.86730957 C282.62133944 423.11818909 284.25175579 422.21432912 286.1385498 420.95747375 C287.17080185 420.27557228 287.17080185 420.27557228 288.22390747 419.57989502 C288.95934784 419.08518204 289.69478821 418.59046906 290.45251465 418.08076477 C291.22219574 417.56844803 291.99187683 417.05613129 292.78488159 416.52828979 C294.41570575 415.44074722 296.04461849 414.35033371 297.67175293 413.25727844 C300.12873366 411.60797656 302.59277178 409.96968366 305.0579834 408.3327179 C313.17474846 402.9187933 321.07729081 397.44734538 328.53845215 391.14717102 C329.52567261 390.34412537 329.52567261 390.34412537 330.53283691 389.52485657 C335.06797544 385.83462056 338.8109858 381.63780397 342.53845215 377.14717102 C343.49751465 376.01988586 343.49751465 376.01988586 344.47595215 374.86982727 C366.06349928 348.85514645 375.80168243 317.52899632 375.60095215 284.14717102 C375.59592791 282.69014131 375.59136663 281.23310992 375.58728027 279.77607727 C375.57634603 276.23307332 375.55913215 272.69013306 375.53845215 269.14717102 C374.63006592 268.85173401 373.72167969 268.556297 372.7857666 268.25190735 C342.41610506 258.32462608 314.18085197 246.28932054 286.53845215 230.14717102 C284.2081049 228.80851487 281.87363564 227.47738 279.53845215 226.14717102 Z " fill="#000000" transform="translate(82.4615478515625,31.852828979492188)"/>
<path d="M0 0 C0.72434777 -0.00367669 1.44869555 -0.00735338 2.19499326 -0.01114148 C4.63466159 -0.02219975 7.07428737 -0.02602578 9.51397705 -0.02983093 C11.25821061 -0.03609398 13.00244284 -0.04274064 14.74667358 -0.04974365 C19.49473582 -0.06716848 24.24278798 -0.07770953 28.99087429 -0.08594918 C31.95619063 -0.09109637 34.92150381 -0.09717224 37.88681793 -0.10346031 C47.16128875 -0.12251684 56.43575158 -0.13674679 65.71023822 -0.14507228 C76.42210743 -0.15484632 87.13377009 -0.18116826 97.84556651 -0.22157317 C106.12079316 -0.25171791 114.39596055 -0.26653961 122.67124104 -0.26985329 C127.61564491 -0.27220573 132.55982823 -0.2811912 137.50417328 -0.30631447 C142.15648358 -0.32957137 146.80842776 -0.33383804 151.4607811 -0.32355309 C153.16758567 -0.32305703 154.87440811 -0.32939809 156.58115768 -0.34310913 C158.91343106 -0.36079563 161.2443859 -0.35373898 163.57666016 -0.34057617 C164.88116497 -0.34296453 166.18566978 -0.34535288 167.52970505 -0.34781361 C171.65262485 0.23317665 173.82556931 1.55173446 177.04229736 4.14717102 C178.89956352 7.86170334 178.62730826 12.10296527 178.04229736 16.14717102 C175.85206819 18.9714139 174.2121253 20.56225705 171.04229736 22.14717102 C168.72484845 22.25053657 166.40433524 22.28673391 164.08459473 22.29434204 C163.36024695 22.29801873 162.63589918 22.30169542 161.88960147 22.30548352 C159.44993313 22.31654179 157.01030735 22.32036782 154.57061768 22.32417297 C152.82638411 22.33043603 151.08215189 22.33708268 149.33792114 22.34408569 C144.5898589 22.36151052 139.84180674 22.37205157 135.09372044 22.38029122 C132.1284041 22.38543842 129.16309091 22.39151429 126.19777679 22.39780235 C116.92330598 22.41685888 107.64884315 22.43108883 98.37435651 22.43941432 C87.66248729 22.44918836 76.95082463 22.4755103 66.23902822 22.51591522 C57.96380157 22.54605995 49.68863418 22.56088165 41.41335368 22.56419533 C36.46894982 22.56654777 31.5247665 22.57553324 26.58042145 22.60065651 C21.92811114 22.62391341 17.27616696 22.62818008 12.62381363 22.61789513 C10.91700906 22.61739907 9.21018661 22.62374013 7.50343704 22.63745117 C5.17116367 22.65513767 2.84020883 22.64808102 0.50793457 22.63491821 C-0.79657024 22.63730657 -2.10107506 22.63969492 -3.44511032 22.64215565 C-7.56803012 22.06116539 -9.74097458 20.74260758 -12.95770264 18.14717102 C-14.81496879 14.4326387 -14.54271353 10.19137677 -13.95770264 6.14717102 C-9.63621962 0.5747324 -6.8041001 0.02231563 0 0 Z " fill="#000000" transform="translate(109.95770263671875,244.8528289794922)"/>
<path d="M0 0 C1.31510056 -0.00860046 2.63020111 -0.01720093 3.9851532 -0.02606201 C5.45126303 -0.03049741 6.91737329 -0.03479576 8.38348389 -0.03897095 C9.92082404 -0.04687082 11.45816233 -0.0551397 12.99549866 -0.06375122 C18.05286891 -0.089986 23.1102475 -0.10528091 28.16766357 -0.11953735 C29.90785477 -0.12489655 31.64804591 -0.13027406 33.388237 -0.13566971 C40.62671821 -0.15730112 47.86519718 -0.17603797 55.10370255 -0.1872921 C65.48102375 -0.20353173 75.85797053 -0.23670666 86.23515058 -0.29369295 C93.5294919 -0.33238527 100.82373305 -0.35192398 108.11817431 -0.35721266 C112.47579591 -0.3608673 116.83301829 -0.37289991 121.19052887 -0.4053154 C125.29135488 -0.4353836 129.3915399 -0.44171263 133.49245262 -0.42993164 C134.9960869 -0.42971079 136.4997508 -0.4380253 138.00328255 -0.45558548 C150.78169968 -0.59668218 150.78169968 -0.59668218 154.71838379 2.56536865 C157.65233267 6.14578586 158.23303236 8.36562764 158.19891357 13.0484314 C157.56372044 16.76983467 155.49974841 18.55702864 152.83953857 21.15390015 C150.06001632 22.54366127 147.79047325 22.28949022 144.67907715 22.30107117 C143.36397659 22.30822647 142.04887604 22.31538177 140.69392395 22.32275391 C139.22781396 22.32559432 137.76170371 22.32830604 136.29559326 22.3309021 C134.75825344 22.33716561 133.22091513 22.3438123 131.68357849 22.35081482 C127.49954848 22.36823589 123.3155299 22.37877976 119.13147259 22.38702035 C116.51792642 22.39216857 113.90438381 22.3982444 111.29084015 22.40453148 C103.11520992 22.42358735 94.93958875 22.43781718 86.76394057 22.44614345 C77.3238302 22.45591587 67.88395431 22.48223376 58.44392657 22.52264434 C51.14958329 22.55279896 43.85530724 22.56761173 36.56090283 22.57092446 C32.20334558 22.57327586 27.84603871 22.58224764 23.48854828 22.60738564 C19.38778489 22.63065982 15.28743684 22.63490238 11.18662453 22.62462425 C9.6830005 22.6241286 8.17935609 22.63045768 6.6757946 22.6441803 C4.61934477 22.66189599 2.56438606 22.65479693 0.50793457 22.64164734 C-1.21653082 22.64522987 -1.21653082 22.64522987 -2.97583389 22.64888477 C-6.88882496 22.04069107 -9.07867706 20.59362666 -12.16046143 18.15390015 C-14.01772758 14.43936783 -13.74547232 10.19810589 -13.16046143 6.15390015 C-9.08613863 0.90016812 -6.41718155 0.03114481 0 0 Z " fill="#000000" transform="translate(109.16046142578125,180.84609985351563)"/>
<path d="M0 0 C1.4299379 -0.01073296 1.4299379 -0.01073296 2.88876343 -0.02168274 C3.9381308 -0.02437164 4.98749817 -0.02706055 6.06866455 -0.02983093 C7.17122589 -0.03640213 8.27378723 -0.04297333 9.40975952 -0.04974365 C13.07112693 -0.06951026 16.73245326 -0.0811468 20.39385986 -0.09111023 C21.64224892 -0.09518576 22.89063797 -0.09926128 24.17685699 -0.10346031 C30.10248089 -0.12218123 36.02809168 -0.13674354 41.95373797 -0.14507228 C48.78978539 -0.15483954 55.62550856 -0.18114438 62.46144176 -0.22157317 C68.38490442 -0.25540069 74.30828786 -0.26721974 80.23184967 -0.27127647 C82.75005542 -0.27615312 85.26825745 -0.28779755 87.78639984 -0.30631447 C91.31043906 -0.33061706 94.83362998 -0.32975659 98.35772705 -0.32279968 C99.3989975 -0.33560974 100.44026794 -0.3484198 101.51309204 -0.36161804 C107.4665362 -0.31876001 110.95123972 0.14617465 115.47198486 4.14717102 C117.32925102 7.86170334 117.05699576 12.10296527 116.47198486 16.14717102 C114.28175569 18.9714139 112.6418128 20.56225705 109.47198486 22.14717102 C107.96520613 22.24780288 106.45408516 22.28657652 104.94396973 22.29434204 C103.51403183 22.305075 103.51403183 22.305075 102.0552063 22.31602478 C100.48115524 22.32005814 100.48115524 22.32005814 98.87530518 22.32417297 C97.77274384 22.33074417 96.6701825 22.33731537 95.53421021 22.34408569 C91.87284279 22.3638523 88.21151646 22.37548884 84.55010986 22.38545227 C83.30172081 22.3895278 82.05333176 22.39360332 80.76711273 22.39780235 C74.84148884 22.41652327 68.91587805 22.43108558 62.99023175 22.43941432 C56.15418433 22.44918158 49.31846116 22.47548642 42.48252797 22.51591522 C36.55906531 22.54974273 30.63568186 22.56156178 24.71212006 22.56561852 C22.1939143 22.57049516 19.67571228 22.58213959 17.15756989 22.60065651 C13.63353066 22.62495911 10.11033975 22.62409863 6.58624268 22.61714172 C5.54497223 22.62995178 4.50370178 22.64276184 3.43087769 22.65596008 C-2.52256647 22.61310205 -6.00726999 22.14816739 -10.52801514 18.14717102 C-12.38528129 14.4326387 -12.11302603 10.19137677 -11.52801514 6.14717102 C-8.03480617 1.64276998 -5.56710945 0.02862795 0 0 Z " fill="#000000" transform="translate(107.52801513671875,372.8528289794922)"/>
<path d="M0 0 C1.4299379 -0.01073296 1.4299379 -0.01073296 2.88876343 -0.02168274 C3.9381308 -0.02437164 4.98749817 -0.02706055 6.06866455 -0.02983093 C7.17122589 -0.03640213 8.27378723 -0.04297333 9.40975952 -0.04974365 C13.07112693 -0.06951026 16.73245326 -0.0811468 20.39385986 -0.09111023 C21.64224892 -0.09518576 22.89063797 -0.09926128 24.17685699 -0.10346031 C30.10248089 -0.12218123 36.02809168 -0.13674354 41.95373797 -0.14507228 C48.78978539 -0.15483954 55.62550856 -0.18114438 62.46144176 -0.22157317 C68.38490442 -0.25540069 74.30828786 -0.26721974 80.23184967 -0.27127647 C82.75005542 -0.27615312 85.26825745 -0.28779755 87.78639984 -0.30631447 C91.31043906 -0.33061706 94.83362998 -0.32975659 98.35772705 -0.32279968 C99.3989975 -0.33560974 100.44026794 -0.3484198 101.51309204 -0.36161804 C107.4665362 -0.31876001 110.95123972 0.14617465 115.47198486 4.14717102 C117.32925102 7.86170334 117.05699576 12.10296527 116.47198486 16.14717102 C114.28175569 18.9714139 112.6418128 20.56225705 109.47198486 22.14717102 C107.96520613 22.24780288 106.45408516 22.28657652 104.94396973 22.29434204 C103.51403183 22.305075 103.51403183 22.305075 102.0552063 22.31602478 C100.48115524 22.32005814 100.48115524 22.32005814 98.87530518 22.32417297 C97.77274384 22.33074417 96.6701825 22.33731537 95.53421021 22.34408569 C91.87284279 22.3638523 88.21151646 22.37548884 84.55010986 22.38545227 C83.30172081 22.3895278 82.05333176 22.39360332 80.76711273 22.39780235 C74.84148884 22.41652327 68.91587805 22.43108558 62.99023175 22.43941432 C56.15418433 22.44918158 49.31846116 22.47548642 42.48252797 22.51591522 C36.55906531 22.54974273 30.63568186 22.56156178 24.71212006 22.56561852 C22.1939143 22.57049516 19.67571228 22.58213959 17.15756989 22.60065651 C13.63353066 22.62495911 10.11033975 22.62409863 6.58624268 22.61714172 C5.54497223 22.62995178 4.50370178 22.64276184 3.43087769 22.65596008 C-2.52256647 22.61310205 -6.00726999 22.14816739 -10.52801514 18.14717102 C-12.38528129 14.4326387 -12.11302603 10.19137677 -11.52801514 6.14717102 C-8.03480617 1.64276998 -5.56710945 0.02862795 0 0 Z " fill="#000000" transform="translate(107.52801513671875,308.8528289794922)"/>
<path d="M0 0 C3.12068856 1.79273598 4.54965052 3.24259405 6.375 6.3125 C7.24818674 10.06720296 7.07611346 12.26525329 6 16 C1.35488838 22.30872454 -4.61229153 27.75891788 -10.14453125 33.27734375 C-11.42102791 34.5552755 -11.42102791 34.5552755 -12.72331238 35.85902405 C-14.50791706 37.644305 -16.29376824 39.42834072 -18.08081055 41.21118164 C-20.82522162 43.95019661 -23.56420432 46.69455952 -26.30273438 49.43945312 C-28.04134577 51.17740442 -29.78026695 52.91504586 -31.51953125 54.65234375 C-32.34032669 55.47516342 -33.16112213 56.29798309 -34.00679016 57.14573669 C-34.76485458 57.90064896 -35.52291901 58.65556122 -36.30395508 59.43334961 C-36.97123123 60.09983017 -37.63850739 60.76631073 -38.32600403 61.45298767 C-41.00331234 63.92720447 -43.05489976 64.27894116 -46.625 64.5 C-47.44226563 64.5721875 -48.25953125 64.644375 -49.1015625 64.71875 C-53.79316117 63.5553347 -56.59539578 60.31104606 -60 57 C-60.76248047 56.26378418 -61.52496094 55.52756836 -62.31054688 54.76904297 C-64.70585294 52.42745879 -67.07472853 50.06188214 -69.4375 47.6875 C-70.25154297 46.87732422 -71.06558594 46.06714844 -71.90429688 45.23242188 C-72.67708984 44.45833984 -73.44988281 43.68425781 -74.24609375 42.88671875 C-75.29301392 41.83810669 -75.29301392 41.83810669 -76.36108398 40.76831055 C-78.89922719 38.02977766 -79.15723851 36.26848315 -79.1875 32.625 C-79.20167969 31.85414063 -79.21585937 31.08328125 -79.23046875 30.2890625 C-78.9732567 27.73438011 -78.34468863 26.17578091 -77 24 C-73.05881562 20.8470525 -69.97049643 20.46744681 -65 21 C-60.41529095 23.24226947 -57.19235234 26.57192329 -53.6875 30.1875 C-53.13771484 30.74630859 -52.58792969 31.30511719 -52.02148438 31.88085938 C-50.67636304 33.24937412 -49.33753357 34.62406833 -48 36 C-44.96260698 34.64245411 -42.88064527 33.12227009 -40.54833984 30.75952148 C-39.89441254 30.10221542 -39.24048523 29.44490936 -38.56674194 28.76768494 C-37.87182648 28.05930984 -37.17691101 27.35093475 -36.4609375 26.62109375 C-35.73887115 25.89382584 -35.01680481 25.16655792 -34.27285767 24.41725159 C-31.96877306 22.09536418 -29.67148868 19.76689861 -27.375 17.4375 C-25.07050867 15.10541428 -22.76458608 12.77479055 -20.45571899 10.44703674 C-19.01950844 8.99854462 -17.58597914 7.54738824 -16.15536499 6.09336853 C-15.18393051 5.11213768 -15.18393051 5.11213768 -14.19287109 4.11108398 C-13.62313568 3.53309555 -13.05340027 2.95510712 -12.46640015 2.35960388 C-8.91989868 -0.92860989 -4.57331873 -0.56968676 0 0 Z " fill="#000000" transform="translate(399,320)"/>
<path d="M0 0 C0.89773636 -0.00817749 1.79547272 -0.01635498 2.72041321 -0.02478027 C5.6999952 -0.04965155 8.67952948 -0.06615531 11.65917969 -0.08056641 C13.18423756 -0.08855192 13.18423756 -0.08855192 14.74010468 -0.09669876 C20.12213894 -0.12343871 25.50414995 -0.14281035 30.88623047 -0.15722656 C36.44602876 -0.17387054 42.00523384 -0.21864408 47.56480789 -0.26959801 C51.83879274 -0.30325325 56.11263656 -0.31480217 60.38674164 -0.32045364 C62.43606852 -0.32717156 64.48538595 -0.3424076 66.53458405 -0.36634445 C69.40505792 -0.39795967 72.27392901 -0.39803808 75.14453125 -0.390625 C75.98943619 -0.40703033 76.83434113 -0.42343567 77.70484924 -0.44033813 C81.88977879 -0.39615308 84.52790555 -0.07241597 87.8427124 2.6043396 C91.21991384 6.11751877 91.72619036 8.17925056 91.69042969 13.08740234 C91.05523655 16.80880562 88.99126453 18.59599959 86.33105469 21.19287109 C83.01560829 22.85059429 79.30808582 22.3583799 75.66210938 22.36987305 C74.76437302 22.37644424 73.86663666 22.38301544 72.94169617 22.38978577 C69.96210654 22.40954308 66.9825674 22.42118727 64.00292969 22.43115234 C62.98622444 22.43522787 61.9695192 22.4393034 60.9220047 22.44350243 C55.53996482 22.46437434 50.15795052 22.47867075 44.77587891 22.48803711 C39.21617241 22.49909908 33.65686643 22.53349351 28.09730148 22.57320881 C23.823316 22.59935486 19.54942617 22.60772721 15.27536774 22.61131859 C13.22605944 22.61619036 11.17675559 22.62782112 9.12752533 22.64635658 C6.25722043 22.67070315 3.38795467 22.66979101 0.51757812 22.6628418 C-0.74977928 22.68205688 -0.74977928 22.68205688 -2.04273987 22.70166016 C-7.37898468 22.65462991 -10.44097431 21.75357475 -14.66894531 18.19287109 C-16.52621147 14.47833878 -16.25395621 10.23707684 -15.66894531 6.19287109 C-10.97348278 0.13819572 -7.23983856 0.03615624 0 0 Z " fill="#000000" transform="translate(111.6689453125,116.80712890625)"/>
</svg>
